<?xml version="1.0" encoding="UTF-8"?>
<svg width="19px" height="18px" viewBox="0 0 19 18" version="1.1" xmlns="http://www.w3.org/2000/svg" xmlns:xlink="http://www.w3.org/1999/xlink">
    <!-- Generator: Sketch 43.1 (39012) - http://www.bohemiancoding.com/sketch -->
    <title>Combined Shape</title>
    <desc>Created with Sketch.</desc>
    <defs></defs>
    <g id="Page-1" stroke="none" stroke-width="1" fill="none" fill-rule="evenodd">
        <path d="M12.5816038,11.5759736 L18.3016854,17.2960658 L17.593808,18.003928 L11.8703954,12.2816747 C10.6271712,13.3519357 9.00247727,14 7.2247191,14 C3.31528773,14 0.146067416,10.8659932 0.146067416,7 C0.146067416,3.13400675 3.31528773,0 7.2247191,0 C11.1341505,0 14.3033708,3.13400675 14.3033708,7 C14.3033708,8.74939837 13.6544261,10.3489117 12.5816038,11.5759736 Z M7.2247191,13 C10.5756603,13 13.2921348,10.3137085 13.2921348,7 C13.2921348,3.6862915 10.5756603,1 7.2247191,1 C3.87377792,1 1.15730337,3.6862915 1.15730337,7 C1.15730337,10.3137085 3.87377792,13 7.2247191,13 Z" id="Combined-Shape" fill="#666666"></path>
    </g>
</svg>